# xmcd
#
# Track frame offsets:
#  150
#  14034
#  32898
#  56029
#  76844
#  91981
#  115741
#  141177
#  161597
#  182153
#  199327
#  226375
#  240546
#
# Disc length: 3625 seconds
#
# Revision: 0
# Processed by: cddbd v1.5.1PL2 Copyright (c) Steve Scherf et al.
# Submitted via: Collectorz.com_Music_Collector 6.9
#
DISCID=ad0e270d
DTITLE=Emmylou Harris - Powell 10th August 2001 [CD1]
DYEAR=2001
DGENRE=Bootleg - Contemporary Country
TTITLE0=Love Match
TTITLE1=Don't Tell Me To Stop Loving You
TTITLE2=Pearl
TTITLE3=Where Will I Be
TTITLE4=Orphan Girl
TTITLE5=Pancho And Lefty
TTITLE6=Red Dirt Girl
TTITLE7=Don't Wanna Talk About It Now
TTITLE8=Ain't Living Long Like This
TTITLE9=Love Hurts
TTITLE10=Goodbye
TTITLE11=Green Pastures
TTITLE12=Deeper Well
EXTD=
EXTT0=
EXTT1=
EXTT2=
EXTT3=
EXTT4=
EXTT5=
EXTT6=
EXTT7=
EXTT8=
EXTT9=
EXTT10=
EXTT11=
EXTT12=
PLAYORDER=
